HIERARCHY
ROOT Pelvis
{
	OFFSET 0.000000 0.941512 0.000000
	CHANNELS 6 Xposition Yposition Zposition Zrotation Yrotation Xrotation 
	JOINT Pelvis_L_Hip
	{
		OFFSET 0.000000 0.000000 0.000000
		CHANNELS 3 Zrotation Yrotation Xrotation
		JOINT L_Hip
		{
			OFFSET 0.062321 -0.080322 -0.016990
			CHANNELS 3 Zrotation Yrotation Xrotation
			JOINT L_Knee
			{
				OFFSET 0.093051 -0.381305 -0.029784
				CHANNELS 3 Zrotation Yrotation Xrotation
				JOINT L_Ankle
				{
					OFFSET -0.010371 -0.431000 -0.033614
					CHANNELS 3 Zrotation Yrotation Xrotation
					End Site #name: L_Foot
					{
						OFFSET 0.069299 -0.038670 0.119418
					}
				}
			}
		}
	}
	JOINT Pelvis_R_Hip
	{
		OFFSET 0.000000 0.000000 0.000000
		CHANNELS 3 Zrotation Yrotation Xrotation
		JOINT R_Hip
		{
			OFFSET -0.055334 -0.094904 -0.002373
			CHANNELS 3 Zrotation Yrotation Xrotation
			JOINT R_Knee
			{
				OFFSET -0.064207 -0.384370 -0.019592
				CHANNELS 3 Zrotation Yrotation Xrotation
				JOINT R_Ankle
				{
					OFFSET 0.025418 -0.419734 -0.065953
					CHANNELS 3 Zrotation Yrotation Xrotation
					End Site #name: R_Foot
					{
						OFFSET -0.057233 -0.039888 0.132134
					}
				}
			}
		}
	}
	JOINT Pelvis_Spine1
	{
		OFFSET 0.000000 0.000000 0.000000
		CHANNELS 3 Zrotation Yrotation Xrotation
		JOINT Spine1
		{
			OFFSET -0.005562 0.124093 -0.043360
			CHANNELS 3 Zrotation Yrotation Xrotation
			JOINT Spine2
			{
				OFFSET 0.012244 0.139499 0.029894
				CHANNELS 3 Zrotation Yrotation Xrotation
				JOINT Spine3
				{
					OFFSET -0.002556 0.056561 0.009225
					CHANNELS 3 Zrotation Yrotation Xrotation
					JOINT Spine3_Neck
					{
						OFFSET 0.000000 0.000000 0.000000
						CHANNELS 3 Zrotation Yrotation Xrotation
						JOINT Neck
						{
							OFFSET -0.005205 0.217920 -0.024551
							CHANNELS 3 Zrotation Yrotation Xrotation
							End Site #name: Head
							{
								OFFSET 0.002365 0.091850 0.046637
							}
						}
					}
					JOINT Spine3_L_Collar
					{
						OFFSET 0.000000 0.000000 0.000000
						CHANNELS 3 Zrotation Yrotation Xrotation
						JOINT L_Collar
						{
							OFFSET 0.072225 0.116603 -0.009480
							CHANNELS 3 Zrotation Yrotation Xrotation
							JOINT L_Shoulder
							{
								OFFSET 0.115937 -0.058643 -0.021018
								CHANNELS 3 Zrotation Yrotation Xrotation
								JOINT L_Elbow
								{
									OFFSET 0.021994 -0.254722 -0.024492
									CHANNELS 3 Zrotation Yrotation Xrotation
									End Site #name: L_Wrist
									{
										OFFSET 0.048810 -0.240214 0.103329
									}
								}
							}
						}
					}
					JOINT Spine3_R_Collar
					{
						OFFSET 0.000000 0.000000 0.000000
						CHANNELS 3 Zrotation Yrotation Xrotation
						JOINT R_Collar
						{
							OFFSET -0.073372 0.120704 -0.024611
							CHANNELS 3 Zrotation Yrotation Xrotation
							JOINT R_Shoulder
							{
								OFFSET -0.108089 -0.054969 -0.020504
								CHANNELS 3 Zrotation Yrotation Xrotation
								JOINT R_Elbow
								{
									OFFSET -0.033684 -0.260739 0.009889
									CHANNELS 3 Zrotation Yrotation Xrotation
									End Site #name: R_Wrist
									{
										OFFSET -0.067980 -0.232763 0.118463
									}
								}
							}
						}
					}
				}
			}
		}
	}
}
MOTION
Frames: 10
Frame Time: 0.041667
-0.105512 0.956051 -0.001452 2.660174 -3.596592 9.007457 0.000000 0.000000 0.000000 13.971088 -4.697029 -33.209909 -9.949420 3.678487 34.909999 -21.365374 -2.914579 31.394273 0.000000 0.000000 0.000000 0.655956 1.587077 -9.432052 -0.685178 -0.485490 -9.075662 6.668717 10.767535 6.522252 0.000000 0.000000 0.000000 8.400116 0.046243 -12.377031 -11.179998 5.953947 25.138527 3.158002 5.095529 -27.181720 0.000000 0.000000 0.000000 -5.912929 3.420446 20.792002 0.000000 0.000000 0.000000 36.096548 -1.619957 7.144213 -0.739630 -0.355322 -4.049815 -1.366910 5.962186 33.333512 0.000000 0.000000 0.000000 -40.293387 9.752181 -0.400913 -6.043590 -0.162728 -2.982847 6.542927 -6.738915 30.862412 
-0.101383 0.959240 0.001620 4.239138 -2.436067 9.790102 0.000000 0.000000 0.000000 11.798352 -4.901488 -30.108560 -9.118437 2.747467 29.119098 -21.100028 -6.628882 28.470884 0.000000 0.000000 0.000000 -1.010105 1.648699 -9.970355 -1.408274 -0.430447 -9.025666 6.239145 9.474507 6.606405 0.000000 0.000000 0.000000 7.798344 0.256582 -13.293706 -11.068873 5.763402 24.711914 2.297889 4.163730 -26.905171 0.000000 0.000000 0.000000 -5.347210 3.003923 20.869366 0.000000 0.000000 0.000000 36.043069 -2.255423 6.535767 -0.604132 -0.350668 -3.973448 -1.491615 6.012013 33.683027 0.000000 0.000000 0.000000 -40.065739 8.670093 0.672911 -5.707085 -0.123093 -3.068005 6.333579 -6.818424 30.987792 
-0.096959 0.962360 0.004457 5.615913 -1.497767 11.107478 0.000000 0.000000 0.000000 8.748252 -5.105237 -27.278924 -7.001550 1.592820 22.823354 -19.962978 -8.639092 25.609430 0.000000 0.000000 0.000000 -2.465398 1.783283 -11.063624 -2.149411 -0.373902 -9.011078 5.818249 8.232251 6.676535 0.000000 0.000000 0.000000 7.255430 0.515149 -14.669103 -11.028696 5.639608 24.408018 1.606995 3.465322 -27.010822 0.000000 0.000000 0.000000 -4.851593 2.630463 21.061837 0.000000 0.000000 0.000000 35.745351 -2.703772 6.053920 -0.229295 -0.380095 -4.168343 -1.443414 5.988771 33.533058 0.000000 0.000000 0.000000 -39.955605 7.504995 1.850836 -5.351492 -0.095047 -3.027807 6.057251 -6.942283 31.245262 
-0.093187 0.965006 0.006007 6.562920 -0.727833 12.741576 0.000000 0.000000 0.000000 5.309660 -5.359724 -25.558236 -3.810929 0.527719 17.115762 -18.827206 -8.292031 24.192290 0.000000 0.000000 0.000000 -3.471221 1.967239 -12.576204 -2.822462 -0.324010 -9.033019 5.468703 6.923116 6.934425 0.000000 0.000000 0.000000 6.954472 0.734273 -16.031790 -11.044136 5.544038 24.070811 1.173970 2.994351 -27.351884 0.000000 0.000000 0.000000 -4.558234 2.392098 21.222697 0.000000 0.000000 0.000000 35.359452 -3.171362 5.538863 0.074464 -0.418564 -4.488332 -1.393495 5.935122 33.187550 0.000000 0.000000 0.000000 -40.133323 6.478352 2.941429 -4.932174 -0.066533 -2.942030 5.878705 -7.046073 31.505981 
-0.091273 0.967354 0.007309 7.184361 -0.330517 14.064610 0.000000 0.000000 0.000000 1.948795 -5.378419 -23.492601 -0.141244 -0.229740 11.191163 -18.207059 -7.395558 23.822628 0.000000 0.000000 0.000000 -3.997609 2.103197 -13.729740 -3.501625 -0.291282 -9.253422 5.305668 5.836798 7.403863 0.000000 0.000000 0.000000 6.614681 0.921038 -17.184031 -11.036099 5.542386 24.235844 0.970367 2.680795 -27.825108 0.000000 0.000000 0.000000 -4.492711 2.330445 21.255108 0.000000 0.000000 0.000000 35.085505 -3.790815 4.867350 0.362866 -0.452939 -4.783203 -1.583517 5.866048 32.929929 0.000000 0.000000 0.000000 -40.262155 5.924980 3.561798 -4.416180 -0.043247 -2.714421 5.808804 -7.118171 31.723356 
-0.091170 0.968551 0.008670 7.435553 -0.484790 15.067755 0.000000 0.000000 0.000000 -0.500878 -4.980216 -20.705031 2.665469 -0.424513 4.502964 -18.122392 -6.255206 24.431052 0.000000 0.000000 0.000000 -4.263890 2.217945 -14.650045 -3.754337 -0.295771 -9.506422 5.367402 5.478628 7.782072 0.000000 0.000000 0.000000 6.314641 1.060046 -18.057867 -10.963006 5.562226 24.500128 0.844480 2.490215 -28.305816 0.000000 0.000000 0.000000 -4.520837 2.366023 21.201263 0.000000 0.000000 0.000000 34.992517 -4.220564 4.367848 0.734394 -0.478989 -4.985756 -1.797883 5.824893 32.844551 0.000000 0.000000 0.000000 -40.195016 5.779107 3.771824 -3.938884 -0.005035 -2.664446 5.843093 -7.167493 31.928094 
-0.092264 0.967594 0.009702 6.946807 -0.722001 16.157173 0.000000 0.000000 0.000000 -1.407256 -4.539868 -18.674862 4.602999 -0.309956 -0.891235 -17.928262 -5.595741 24.632131 0.000000 0.000000 0.000000 -3.971252 2.391383 -15.747239 -3.363903 -0.341060 -9.691448 5.420946 5.535489 7.838338 0.000000 0.000000 0.000000 6.364955 1.185434 -19.030757 -10.541621 5.413086 24.542857 0.796760 2.310810 -28.603400 0.000000 0.000000 0.000000 -4.534634 2.401070 20.884766 0.000000 0.000000 0.000000 35.106902 -4.414666 4.129118 0.872940 -0.476696 -4.928023 -1.992177 5.778951 32.716017 0.000000 0.000000 0.000000 -40.013096 5.612497 4.000720 -3.789351 0.065495 -3.189194 5.885892 -7.203364 32.076046 
-0.094279 0.964664 0.010137 5.536133 -0.721226 17.253922 0.000000 0.000000 0.000000 -0.486618 -4.488507 -18.785476 5.657647 -0.287771 -2.215639 -16.429839 -5.071738 22.908841 0.000000 0.000000 0.000000 -2.815671 2.634290 -16.864860 -2.505644 -0.409792 -9.779231 5.547620 6.015948 7.748972 0.000000 0.000000 0.000000 6.772200 1.241063 -19.650841 -9.732293 5.002216 23.950310 1.072729 2.291571 -28.610334 0.000000 0.000000 0.000000 -4.461289 2.359129 20.261209 0.000000 0.000000 0.000000 35.443210 -4.369824 4.213820 0.331230 -0.470524 -4.966305 -1.988380 5.771037 32.650291 0.000000 0.000000 0.000000 -39.871701 5.332103 4.320330 -3.944683 0.122100 -3.855033 5.690619 -7.179287 31.860134 
-0.097390 0.961484 0.009991 3.912956 -0.638460 17.912087 0.000000 0.000000 0.000000 0.799531 -4.726372 -20.271768 6.670548 -0.532062 -0.007590 -14.013093 -5.255651 19.345418 0.000000 0.000000 0.000000 -1.150714 2.862326 -17.524407 -1.872023 -0.461972 -9.879283 5.726160 6.490588 7.760829 0.000000 0.000000 0.000000 6.697982 1.228477 -19.535139 -8.790983 4.514629 23.143519 1.878887 2.626128 -28.361268 0.000000 0.000000 0.000000 -4.233882 2.188223 19.193934 0.000000 0.000000 0.000000 35.987690 -4.175764 4.554718 -0.690975 -0.518255 -5.618556 -2.171083 5.725174 32.500138 0.000000 0.000000 0.000000 -39.719154 4.952085 4.677671 -4.058557 0.170479 -4.411033 5.274855 -7.158635 31.497863 
-0.101793 0.958670 0.009981 2.463231 -0.949549 17.910562 0.000000 0.000000 0.000000 1.726477 -4.973092 -21.823516 7.902163 -0.985773 3.803813 -11.329851 -5.289491 15.410552 0.000000 0.000000 0.000000 0.637522 2.996087 -17.483259 -1.644292 -0.490039 -10.057083 6.089791 7.207706 7.934497 0.000000 0.000000 0.000000 6.162247 1.196381 -19.019816 -8.082137 4.238481 23.011142 2.899086 3.196324 -28.234430 0.000000 0.000000 0.000000 -3.973001 2.011113 18.356657 0.000000 0.000000 0.000000 36.544815 -3.919578 4.950210 -1.408898 -0.603915 -6.492183 -2.295351 5.732944 32.615205 0.000000 0.000000 0.000000 -39.454185 4.887480 4.687795 -3.820560 0.240642 -4.811040 4.930929 -7.206752 31.437555 
